# xmcd
#
# Track frame offsets:
#	150
#	9545
#	28972
#	47824
#	65670
#	80925
#	97562
#	117992
#	133271
#	157804
#	175764
#	196943
#	222743
#	237333
#	260130
#	276177
#	291386
#
# Disc length: 4005 seconds
#
# Revision: 1
# Processed by: cddbd v1.5.2PL0 Copyright (c) Steve Scherf et al.
# Submitted via: audiograbber 1.83.01
#
DISCID=060fa311
DTITLE=Bill Withers - Les Quatre Plus Grandes Légendes de la Soul
DYEAR=2000
DGENRE=Soul
TTITLE0=Ain't No Sunshine
TTITLE1=Lean on Me
TTITLE2=Lovely Day
TTITLE3=Just the Two of Us
TTITLE4=Harlem
TTITLE5=Use Me
TTITLE6=Friend of Mine
TTITLE7=The Same Love That Made Me Laugh
TTITLE8=Hello Like Before
TTITLE9=I Wish You Well
TTITLE10=You Just Can't Smile It Away
TTITLE11=Steppin' Right Along
TTITLE12=Who Is He (And What Is He to You)?
TTITLE13=Memories Are That Way
TTITLE14=It Ain't Because Of Me Baby
TTITLE15=I Want To Spend The Night
TTITLE16=Grandma's Hands
EXTD=
EXTT0=
EXTT1=
EXTT2=
EXTT3=
EXTT4=
EXTT5=
EXTT6=
EXTT7=
EXTT8=
EXTT9=
EXTT10=
EXTT11=
EXTT12=
EXTT13=
EXTT14=
EXTT15=
EXTT16=
PLAYORDER=
